<svg width="89" height="68" viewBox="0 0 89 68" fill="none" xmlns="http://www.w3.org/2000/svg">
<path d="M33.0614 17.0932C31.5819 15.7423 29.8772 15.0668 27.9474 15.0668C26.0175 15.0668 24.3129 15.7423 22.8333 17.0932C21.1608 18.5084 19.8099 20.8885 18.7807 24.2335C17.7515 27.5142 17.2368 30.7306 17.2368 33.8826C17.2368 36.7774 17.7193 39.9294 18.6842 43.3388C19.7135 46.6838 21.0965 49.1283 22.8333 50.6721C24.3129 52.023 26.0175 52.6984 27.9474 52.6984C29.8772 52.6984 31.5819 52.023 33.0614 50.6721C34.7339 49.1926 36.0848 46.8125 37.114 43.5318C38.1433 40.1867 38.6579 37.0025 38.6579 33.9791C38.6579 30.9557 38.1111 27.7394 37.0175 24.33C35.9883 20.9206 34.6696 18.5084 33.0614 17.0932ZM55.2544 33.7861C55.2544 45.0435 52.0702 53.792 45.7018 60.0318C40.7485 64.9206 34.8304 67.3651 27.9474 67.3651C21.0643 67.3651 15.1462 64.9206 10.193 60.0318C3.82456 53.792 0.640351 45.0435 0.640351 33.7861C0.640351 22.4645 3.82456 13.6838 10.193 7.44404C15.1462 2.55515 21.0643 0.110704 27.9474 0.110704C34.8304 0.110704 40.7485 2.55515 45.7018 7.44404C52.0702 13.6838 55.2544 22.4645 55.2544 33.7861ZM72.1803 65.9177V15.7423H63.0136V1.55807H88.8733V65.9177H72.1803Z" fill="white"/>
</svg>
