<svg width="111" height="68" viewBox="0 0 111 68" fill="none" xmlns="http://www.w3.org/2000/svg">
<path d="M33.0614 17.0932C31.5819 15.7423 29.8772 15.0668 27.9474 15.0668C26.0175 15.0668 24.3129 15.7423 22.8333 17.0932C21.1608 18.5084 19.8099 20.8885 18.7807 24.2335C17.7515 27.5142 17.2368 30.7306 17.2368 33.8826C17.2368 36.7774 17.7193 39.9294 18.6842 43.3388C19.7135 46.6838 21.0965 49.1283 22.8333 50.6721C24.3129 52.023 26.0175 52.6984 27.9474 52.6984C29.8772 52.6984 31.5819 52.023 33.0614 50.6721C34.7339 49.1926 36.0848 46.8125 37.114 43.5318C38.1433 40.1867 38.6579 37.0025 38.6579 33.9791C38.6579 30.9557 38.1111 27.7394 37.0175 24.33C35.9883 20.9206 34.6696 18.5084 33.0614 17.0932ZM55.2544 33.7861C55.2544 45.0435 52.0702 53.792 45.7018 60.0318C40.7485 64.9206 34.8304 67.3651 27.9474 67.3651C21.0643 67.3651 15.1462 64.9206 10.193 60.0318C3.82456 53.792 0.640351 45.0435 0.640351 33.7861C0.640351 22.4645 3.82456 13.6838 10.193 7.44404C15.1462 2.55515 21.0643 0.110704 27.9474 0.110704C34.8304 0.110704 40.7485 2.55515 45.7018 7.44404C52.0702 13.6838 55.2544 22.4645 55.2544 33.7861ZM110.989 51.7335V65.9177H59.3658L75.6728 48.8388C81.5266 42.7277 85.9331 37.292 88.8921 32.5318C91.2079 28.9294 92.3658 25.5844 92.3658 22.4967C92.3658 19.7949 91.7225 17.7364 90.436 16.3212C89.2781 15.0347 87.7021 14.3914 85.7079 14.3914C83.3278 14.3914 81.4623 15.2598 80.1114 16.9967C78.6962 18.7978 77.9243 21.4353 77.7956 24.909H60.5237C60.588 17.7043 62.9682 11.754 67.6641 7.05808C72.2956 2.42649 78.3746 0.110704 85.9009 0.110704C93.5559 0.110704 99.6027 2.33 104.041 6.7686C108.223 10.9499 110.313 16.2247 110.313 22.5932C110.313 29.4119 107.129 35.7803 100.761 41.6984L89.9535 51.7335H110.989Z" fill="white"/>
</svg>
