<svg width="111" height="68" viewBox="0 0 111 68" fill="none" xmlns="http://www.w3.org/2000/svg">
<path d="M33.0614 17.0932C31.5819 15.7423 29.8772 15.0668 27.9474 15.0668C26.0175 15.0668 24.3129 15.7423 22.8333 17.0932C21.1608 18.5084 19.8099 20.8885 18.7807 24.2335C17.7515 27.5142 17.2368 30.7306 17.2368 33.8826C17.2368 36.7774 17.7193 39.9294 18.6842 43.3388C19.7135 46.6838 21.0965 49.1283 22.8333 50.6721C24.3129 52.023 26.0175 52.6984 27.9474 52.6984C29.8772 52.6984 31.5819 52.023 33.0614 50.6721C34.7339 49.1926 36.0848 46.8125 37.114 43.5318C38.1433 40.1867 38.6579 37.0025 38.6579 33.9791C38.6579 30.9557 38.1111 27.7394 37.0175 24.33C35.9883 20.9206 34.6696 18.5084 33.0614 17.0932ZM55.2544 33.7861C55.2544 45.0435 52.0702 53.792 45.7018 60.0318C40.7485 64.9206 34.8304 67.3651 27.9474 67.3651C21.0643 67.3651 15.1462 64.9206 10.193 60.0318C3.82456 53.792 0.640351 45.0435 0.640351 33.7861C0.640351 22.4645 3.82456 13.6838 10.193 7.44404C15.1462 2.55515 21.0643 0.110704 27.9474 0.110704C34.8304 0.110704 40.7485 2.55515 45.7018 7.44404C52.0702 13.6838 55.2544 22.4645 55.2544 33.7861ZM59.5588 43.9177H76.6377C76.7664 46.6195 77.6348 48.7744 79.243 50.3826C80.7869 52.0552 82.974 52.8914 85.8044 52.8914C88.4418 52.8914 90.629 51.9587 92.3658 50.0932C93.6524 48.6136 94.2956 46.8446 94.2956 44.7861C94.2956 42.406 93.4594 40.5084 91.7869 39.0932C90.3073 37.8709 88.2489 37.2598 85.6114 37.2598C84.5179 37.2598 83.5851 37.3885 82.8132 37.6458V26.3563C85.6436 26.7423 87.9272 26.1955 89.6641 24.716C91.0793 23.4937 91.7869 21.9821 91.7869 20.1809C91.7869 18.2511 91.2079 16.7072 90.05 15.5493C88.8921 14.3914 87.3161 13.8125 85.322 13.8125C83.3278 13.8125 81.7839 14.3592 80.6904 15.4528C79.2108 16.8037 78.4711 18.7013 78.4711 21.1458H62.936C63.2576 15.1633 65.3483 10.2423 69.2079 6.38263C73.1962 2.20135 78.857 0.110704 86.1904 0.110704C93.0091 0.110704 98.3483 2.00837 102.208 5.80369C105.682 9.27737 107.418 13.4265 107.418 18.2511C107.418 21.2101 106.775 23.8475 105.489 26.1633C104.266 28.4148 102.626 30.0552 100.568 31.0844C103.72 32.2423 106.261 34.2043 108.19 36.9704C109.992 39.6078 110.892 42.7598 110.892 46.4265C110.892 52.023 108.994 56.7189 105.199 60.5142C100.632 65.0815 94.2313 67.3651 85.9974 67.3651C78.4711 67.3651 72.3278 65.1458 67.5676 60.7072C62.8717 56.3973 60.2021 50.8008 59.5588 43.9177Z" fill="white"/>
</svg>
